<svg width="99" height="37" viewBox="0 0 99 37" fill="none" xmlns="http://www.w3.org/2000/svg">
<g clip-path="url(#clip0_803_5733)">
<path d="M18.1181 0C17.6851 0 17.3432 0.113288 17.047 0.339865C16.7507 0.566442 16.5684 0.815677 16.4544 1.08757L12.2383 12.8016C12.0559 13.3227 11.8736 13.8665 11.6913 14.4783C11.509 15.0674 11.3494 15.7018 11.2127 16.3588C11.2127 16.3588 11.2127 16.3588 11.2127 16.3815C11.0304 15.7244 10.8481 15.09 10.6657 14.4783C10.4606 13.8892 10.2783 13.3227 10.0732 12.8016L5.78867 1.08757C5.67472 0.747704 5.46961 0.498469 5.17334 0.29455C4.92265 0.0906307 4.55801 0 4.10221 0H0L8.81975 21.8647H11.1899H13.4461L22.2659 0H18.1181Z" fill="#005CB9"/>
<path d="M64.9288 21.8647H79.1043V17.9675H70.0794V12.7563H77.0076V9.01776H70.0794V3.89712H75.1844C77.3494 3.89712 79.1043 2.15248 79.1043 0H64.9288V21.8647Z" fill="#005CB9"/>
<path d="M63.8349 11.2382C63.7893 11.1929 63.7666 11.1476 63.721 11.1249C63.2652 10.6718 62.741 10.3092 62.1485 10.0147C61.5559 9.72015 60.9634 9.47091 60.348 9.26699C59.7327 9.04042 59.1402 8.85915 58.5476 8.67789C57.9551 8.49663 57.4309 8.31537 56.9751 8.08879C56.5193 7.88487 56.1547 7.63564 55.8584 7.34109C55.5849 7.04654 55.4254 6.68402 55.4254 6.25352C55.4254 5.57379 55.6533 5.00735 56.1319 4.59951C56.6105 4.19167 57.317 3.98775 58.2742 3.98775C58.8211 3.98775 59.3225 4.05573 59.7555 4.21433C60.1885 4.35028 60.5759 4.53154 60.9178 4.7128C61.2596 4.89406 61.5559 5.05266 61.8294 5.21127C62.1029 5.34721 62.3536 5.43784 62.5815 5.43784C62.8322 5.43784 63.0601 5.36987 63.2196 5.25658C63.3791 5.14329 63.5387 4.96203 63.6982 4.7128L63.8349 4.44091V1.49541C63.7666 1.45009 63.6982 1.40478 63.6298 1.35946C63.1284 1.06491 62.6043 0.838334 62.0117 0.611758C61.442 0.407838 60.8266 0.249235 60.1885 0.158604C59.5504 0.0453154 58.8895 0 58.2286 0C57.0207 0 55.9496 0.181261 55.0152 0.543784C54.0808 0.906307 53.2831 1.40478 52.645 2.01653C52.0069 2.62829 51.5055 3.33068 51.1864 4.10104C50.8446 4.8714 50.6851 5.68708 50.6851 6.50276C50.6851 7.52235 50.8218 8.38334 51.1181 9.08573C51.3916 9.78812 51.779 10.3546 52.2348 10.8304C52.6906 11.3062 53.2148 11.6687 53.8073 11.9633C54.3998 12.2578 54.9924 12.4844 55.6077 12.6883C56.223 12.8922 56.8156 13.0508 57.4081 13.2094C58.0007 13.368 58.5021 13.5493 58.9806 13.7759C59.4364 13.9798 59.8011 14.2517 60.0974 14.5689C60.3708 14.8861 60.5304 15.3166 60.5304 15.8151C60.5304 16.6987 60.2797 17.3331 59.7555 17.741C59.2313 18.1488 58.5248 18.3527 57.5905 18.3527C56.9068 18.3527 56.3142 18.2621 55.8128 18.0582C55.3114 17.8769 54.8556 17.6503 54.4682 17.4238C54.0808 17.1972 53.7389 16.9933 53.4199 16.7893C53.1236 16.6081 52.8045 16.4948 52.5083 16.4948C52.2804 16.4948 52.0525 16.5401 51.8474 16.6534C51.6422 16.7667 51.4827 16.9026 51.3688 17.0839L49.8646 19.463C50.2976 19.8934 50.799 20.2786 51.3916 20.6412C51.9841 20.981 52.5994 21.2982 53.2603 21.5475C53.9213 21.7967 54.605 22.0006 55.3114 22.1366C56.0179 22.2725 56.7244 22.3405 57.4081 22.3405C58.6616 22.3405 59.7783 22.1592 60.7583 21.774C61.7382 21.3889 62.5587 20.8904 63.2424 20.2333C63.4703 20.0067 63.6754 19.7575 63.8805 19.5083V11.2382H63.8349Z" fill="#1CCFC9"/>
<path d="M94.328 14.2743C94.1001 13.9118 93.8494 13.6173 93.5532 13.368C93.2569 13.1188 92.9378 12.9149 92.596 12.7336C93.3025 12.4617 93.9406 12.1219 94.4876 11.6914C95.0345 11.2609 95.4903 10.7851 95.8778 10.2639C96.2652 9.72015 96.5387 9.1537 96.721 8.51929C96.9033 7.88487 97.0173 7.2278 97.0173 6.50276C97.0173 5.57379 96.8577 4.7128 96.5387 3.91978C96.2196 3.12676 95.6954 2.44703 94.9889 1.85793C94.2825 1.26883 93.3709 0.815677 92.2314 0.498469C91.1146 0.158604 89.7472 0 88.1519 0H80.9958V21.8647H86.1008V13.7759H87.3999C87.7873 13.7759 88.1063 13.8438 88.3115 13.9571C88.5394 14.0704 88.7217 14.2743 88.8812 14.5462L92.5276 20.8904C92.8923 21.5248 93.5076 21.842 94.3736 21.842H99L94.328 14.2743ZM91.8211 8.20208C91.6844 8.60992 91.4565 8.97244 91.1374 9.28965C90.8184 9.60686 90.4309 9.83344 89.9296 10.0147C89.451 10.196 88.8584 10.2866 88.1519 10.2866H86.1008V3.80649H88.1519C89.4737 3.80649 90.4537 4.07838 91.0691 4.62217C91.7072 5.16595 92.0035 5.91366 92.0035 6.86528C92.0262 7.34109 91.9579 7.79424 91.8211 8.20208Z" fill="#005CB9"/>
<path d="M29.6043 0H24.3854L15.8619 21.8647H19.8501C20.2604 21.8647 20.625 21.7514 20.9213 21.5248C21.2175 21.2982 21.3999 21.049 21.5138 20.7771L22.8128 16.9706L23.9979 13.5266L26.0262 7.56767C26.1858 7.18249 26.3453 6.72933 26.5048 6.20821C26.6872 5.68708 26.8467 5.12064 27.0062 4.50888C27.1885 5.12064 27.3481 5.66442 27.5304 6.18555C27.7127 6.70667 27.8494 7.15983 27.9862 7.52235L30.0145 13.504H27.895C26.3225 13.504 24.5221 15.6791 24.0663 16.9479H31.1996L32.4986 20.7544C32.6126 21.0716 32.8177 21.3435 33.0912 21.5475C33.3874 21.7514 33.7521 21.8647 34.1851 21.8647H38.1506L29.6043 0Z" fill="#005CB9"/>
<path d="M49.8874 12.779C49.6139 12.1446 49.2265 11.5782 48.7707 11.125C48.3149 10.6719 47.7907 10.3093 47.1982 10.0148C46.6057 9.72024 46.0131 9.47101 45.3978 9.26709C44.7825 9.04051 44.1899 8.85925 43.5974 8.67799C43.0048 8.49673 42.4807 8.31546 42.0249 8.11155C41.5691 7.90763 41.2044 7.65839 40.9081 7.36384C40.6347 7.06929 40.4751 6.70677 40.4751 6.27627C40.4751 5.59654 40.703 5.0301 41.1816 4.62226C41.6602 4.21442 42.3667 4.0105 43.3239 4.0105C43.8709 4.0105 44.3722 4.07848 44.8052 4.23708C45.2383 4.37303 45.6257 4.55429 45.9675 4.73555C46.3094 4.91681 46.6057 5.07542 46.8791 5.23402C47.1526 5.36997 47.4033 5.4606 47.6312 5.4606C47.8819 5.4606 48.1098 5.39262 48.2693 5.27934C48.4289 5.16605 48.5884 4.98479 48.7479 4.73555L50.0242 2.37915C49.6367 2.01663 49.1809 1.69942 48.6796 1.40487C48.1782 1.11032 47.654 0.883744 47.0615 0.679825C46.4917 0.475906 45.8764 0.317302 45.2383 0.204014C44.6001 0.0907255 43.9392 0.0454102 43.2783 0.0454102C42.0704 0.0454102 40.9993 0.226672 40.0649 0.589195C39.1305 0.951718 38.3329 1.45019 37.6947 2.06194C37.0566 2.6737 36.5552 3.37609 36.2362 4.14645C35.8943 4.91681 35.7348 5.73249 35.7348 6.54817C35.7348 7.56776 35.8715 8.42875 36.1678 9.13114C36.4413 9.83353 36.8287 10.4 37.2845 10.8758C37.7403 11.3516 38.2645 11.7141 38.857 12.0087C39.4496 12.3032 40.0421 12.5298 40.6575 12.7337C41.2728 12.9376 41.8653 13.0962 42.4579 13.2548C43.0504 13.4134 43.5518 13.5947 44.0304 13.8213C44.4862 14.0252 44.8508 14.2971 45.1471 14.6143C45.4206 14.9315 45.5801 15.362 45.5801 15.8605C45.5801 16.7441 45.3294 17.3785 44.8052 17.7864C44.2811 18.1942 43.5746 18.3981 42.6402 18.3981C41.9565 18.3981 41.3639 18.3075 40.8626 18.1036C40.3612 17.9223 39.9054 17.6957 39.5179 17.4692C39.1305 17.2426 38.7887 17.0387 38.4696 16.8348C38.1733 16.6535 37.8543 16.5402 37.558 16.5402C37.3985 16.5402 37.2617 16.5629 37.1022 16.6082L39.1533 21.8648C39.5635 21.9781 39.9738 22.0913 40.384 22.182C41.0905 22.3179 41.797 22.3859 42.4807 22.3859C43.7341 22.3859 44.8508 22.2046 45.8308 21.8194C46.8108 21.4343 47.6312 20.9358 48.3149 20.2787C48.9758 19.6217 49.5 18.8513 49.8418 17.9676C50.1837 17.084 50.366 16.1324 50.366 15.1354C50.3204 14.1838 50.1837 13.4134 49.8874 12.779Z" fill="#1CCFC9"/>
<path d="M13.4461 34.2131C13.788 34.4624 13.9475 34.7796 13.9475 35.1874C13.9475 35.5499 13.8336 35.8445 13.5829 36.1164C13.3322 36.3883 13.0131 36.5922 12.5801 36.7508C12.1471 36.9094 11.6685 36.9774 11.1215 36.9774C10.2327 36.9774 9.54904 36.8414 9.07044 36.5469C8.59185 36.2523 8.36395 35.8898 8.36395 35.414C8.36395 35.0968 8.45511 34.8475 8.63743 34.621C8.81975 34.3944 9.09323 34.2358 9.41229 34.1452C9.18439 34.0319 8.97928 33.8959 8.84254 33.7147C8.7058 33.5334 8.63743 33.3295 8.63743 33.1029C8.63743 32.831 8.72859 32.5818 8.91091 32.3779C9.09323 32.1739 9.34393 32.038 9.66299 31.9474C9.34393 31.7888 9.09323 31.5622 8.91091 31.2903C8.72859 31.0184 8.66022 30.7012 8.66022 30.3387C8.66022 29.7496 8.88812 29.2964 9.32114 28.9339C9.75415 28.594 10.3467 28.4128 11.076 28.4128C11.5773 28.4128 12.0332 28.5034 12.4206 28.6846C12.4662 28.2995 12.6257 28.0049 12.8992 27.7783C13.1727 27.5518 13.5145 27.4385 13.9019 27.4385L14.0387 27.9596C13.674 27.9596 13.3778 28.0502 13.1727 28.2088C12.9675 28.3674 12.8308 28.6167 12.808 28.9112C13.2638 29.2737 13.4917 29.7496 13.4917 30.316C13.4917 30.9051 13.2638 31.3583 12.8308 31.7208C12.3978 32.0833 11.8053 32.2419 11.0988 32.2419C10.8481 32.2419 10.5746 32.2192 10.3011 32.1513C9.95926 32.1966 9.70857 32.2872 9.52625 32.4458C9.34392 32.6044 9.25276 32.7857 9.25276 32.9896C9.25276 33.2388 9.36671 33.4428 9.57183 33.5787C9.77694 33.7147 10.096 33.7826 10.529 33.7826H12.0559C12.6485 33.8506 13.1043 33.9865 13.4461 34.2131ZM12.808 36.139C13.2182 35.9125 13.4233 35.6179 13.4233 35.2554C13.4233 34.9835 13.2866 34.7569 13.0359 34.5983C12.7852 34.4397 12.3978 34.3491 11.9192 34.3491H10.3923C9.93647 34.3491 9.59462 34.4397 9.32114 34.621C9.04765 34.8022 8.9337 35.0288 8.9337 35.3233C8.9337 35.6859 9.13881 35.9804 9.52625 36.1843C9.91368 36.3883 10.4834 36.5016 11.2127 36.5016C11.8736 36.5016 12.3978 36.3883 12.808 36.139ZM9.77694 31.4262C10.096 31.6755 10.5518 31.8114 11.0988 31.8114C11.6457 31.8114 12.1015 31.6755 12.4206 31.4262C12.7396 31.177 12.8992 30.8145 12.8992 30.384C12.8992 29.9535 12.7396 29.591 12.4206 29.3417C12.1015 29.0925 11.6685 28.9565 11.0988 28.9565C10.5518 28.9565 10.096 29.0925 9.77694 29.3417C9.45788 29.591 9.27555 29.9535 9.27555 30.384C9.29834 30.8145 9.45788 31.1543 9.77694 31.4262Z" fill="#005CB9"/>
<path d="M19.0753 28.6392L18.9158 29.183C18.7334 29.0471 18.4828 28.9791 18.1637 28.9791C17.8674 28.9791 17.5712 29.0697 17.3205 29.251C17.047 29.4322 16.8419 29.7041 16.6823 30.0213C16.5228 30.3612 16.4317 30.7237 16.4317 31.1316V34.4396H15.8391V28.5486H16.3405L16.4089 29.7494C16.5684 29.3416 16.8191 29.0017 17.1609 28.7752C17.48 28.5486 17.8902 28.4353 18.346 28.4353C18.6423 28.4353 18.893 28.5033 19.0753 28.6392Z" fill="#005CB9"/>
<path d="M20.9896 27.2799C20.8985 27.1893 20.8529 27.076 20.8529 26.9174C20.8529 26.7588 20.8985 26.6455 20.9896 26.5549C21.0808 26.4643 21.1948 26.4189 21.3543 26.4189C21.5138 26.4189 21.6278 26.4643 21.7189 26.5549C21.8101 26.6455 21.8557 26.7588 21.8557 26.9174C21.8557 27.076 21.8101 27.1893 21.7189 27.2799C21.6278 27.3706 21.5138 27.4159 21.3543 27.4159C21.1948 27.4159 21.0808 27.3706 20.9896 27.2799ZM21.6506 34.4624H21.058V28.5714H21.6506V34.4624Z" fill="#005CB9"/>
<path d="M25.4793 28.5714H27.576V29.0698H25.4793V34.4624H24.8867V29.0698H23.7017V28.5714H24.8867V27.5744C24.8867 27.0306 25.0463 26.6001 25.3425 26.2829C25.6616 25.9657 26.0946 25.8071 26.6416 25.8071C27.0746 25.8071 27.3936 25.9204 27.5988 26.1243L27.4392 26.6001C27.2341 26.4189 26.9834 26.3509 26.6872 26.3509C26.2997 26.3509 26.0035 26.4642 25.7756 26.6908C25.5704 26.9174 25.4565 27.2346 25.4565 27.6651V28.5714H25.4793Z" fill="#005CB9"/>
<path d="M34.1167 31.7661H29.3992C29.4447 32.4911 29.6498 33.0576 30.0373 33.4654C30.4247 33.8732 30.9489 34.0772 31.6098 34.0772C32.0656 34.0772 32.4758 33.9865 32.8177 33.8053C33.1595 33.624 33.3874 33.3521 33.5469 33.0122L34.0483 33.2615C33.8204 33.692 33.5014 34.0318 33.0911 34.2584C32.6809 34.485 32.1795 34.5983 31.6098 34.5983C30.721 34.5983 30.0373 34.3264 29.5587 33.7826C29.0573 33.2388 28.8294 32.4911 28.8294 31.5395C28.8294 30.5879 29.0801 29.8402 29.5587 29.2964C30.0373 28.7526 30.6982 28.4807 31.5642 28.4807C32.3619 28.4807 33 28.7526 33.4558 29.2737C33.9116 29.8175 34.1395 30.5199 34.1395 31.4036C34.1395 31.4942 34.1395 31.6301 34.1167 31.7661ZM30.0373 29.5683C29.6726 29.9535 29.4675 30.5199 29.3992 31.245H33.5697C33.5242 30.5426 33.3418 29.9761 32.9772 29.5909C32.6353 29.1831 32.134 28.9792 31.5414 28.9792C30.9261 28.9565 30.4019 29.1604 30.0373 29.5683Z" fill="#005CB9"/>
<path d="M39.7914 28.6392L39.6319 29.183C39.4496 29.0471 39.1989 28.9791 38.8798 28.9791C38.5836 28.9791 38.2873 29.0697 38.0366 29.251C37.7631 29.4322 37.558 29.7041 37.3985 30.0213C37.2389 30.3612 37.1478 30.7237 37.1478 31.1316V34.4396H36.5552V28.5486H37.0566L37.125 29.7494C37.2845 29.3416 37.5352 29.0017 37.8771 28.7752C38.1961 28.5486 38.6063 28.4353 39.0621 28.4353C39.3584 28.4353 39.6091 28.5033 39.7914 28.6392Z" fill="#005CB9"/>
<path d="M43.3239 25.7166L42.2072 27.5745H41.7286L42.6858 25.7166H43.3239ZM42.3667 34.4624H41.7742V28.5714H42.3667V34.4624Z" fill="#005CB9"/>
<path d="M50.4345 33.9865L50.3889 34.4623C50.2521 34.5303 50.047 34.5756 49.8191 34.5756C49.5456 34.5756 49.3177 34.5076 49.1354 34.349C48.9531 34.1904 48.8619 33.9412 48.8391 33.5786C48.6568 33.8959 48.3606 34.1451 47.9503 34.3263C47.5401 34.5076 47.1299 34.5982 46.6741 34.5982C46.0816 34.5982 45.6258 34.4623 45.2611 34.2131C44.9193 33.9638 44.7369 33.5786 44.7369 33.1028C44.7369 32.1965 45.489 31.6074 46.9932 31.3355L48.8164 31.0183V30.4972C48.8164 30.0214 48.6796 29.6589 48.4061 29.387C48.1327 29.1151 47.7224 28.9791 47.2211 28.9791C46.2867 28.9791 45.6485 29.387 45.3295 30.2253L44.8737 29.8854C45.056 29.4323 45.3295 29.0698 45.7397 28.8205C46.1499 28.5713 46.6285 28.458 47.2211 28.458C47.9048 28.458 48.4517 28.6166 48.8391 28.9565C49.2266 29.2963 49.4317 29.7722 49.4317 30.4066V33.4427C49.4317 33.8505 49.614 34.0771 49.9787 34.0771C50.161 34.0771 50.3205 34.0318 50.4345 33.9865ZM47.7224 33.8959C48.0415 33.7826 48.2922 33.6013 48.5201 33.3974C48.7252 33.1708 48.8391 32.8989 48.8391 32.5817V31.4941L47.2211 31.7887C46.5829 31.902 46.1043 32.0832 45.8309 32.2872C45.5346 32.4911 45.3978 32.763 45.3978 33.1028C45.3978 33.42 45.5118 33.6693 45.7625 33.8279C46.0132 33.9865 46.355 34.0771 46.788 34.0771C47.0843 34.0545 47.4034 34.0091 47.7224 33.8959Z" fill="#005CB9"/>
</g>
<defs>
<clipPath id="clip0_803_5733">
<rect width="99" height="37" fill="white"/>
</clipPath>
</defs>
</svg>
